<?xml version="1.0" encoding="iso-8859-1" ?>
<!-- Generator: Adobe Illustrator 18.1.1, SVG Export Plug-In . SVG Version: 6.00 Build 0)  -->
<svg
  version="1.1"
  id="Capa_1"
  xmlns="http://www.w3.org/2000/svg"
  xmlns:xlink="http://www.w3.org/1999/xlink"
  x="0px"
  y="0px"
  viewBox="0 0 255.931 255.931"
  fill="#000"
  xml:space="preserve"
>
<g>
	<g>
		<path
        style="fill:#010002;"
        d="M23.867,89.455h65.588V23.867H23.867V89.455z M35.801,35.801h41.72v41.72h-41.72V35.801z"
      />
		<path
        style="fill:#010002;"
        d="M0,113.323h113.323V0H0V113.323z M11.934,11.934h89.455v89.455H11.934V11.934z"
      />
		<path
        style="fill:#010002;"
        d="M142.608,0v113.323h113.323V0H142.608z M243.997,101.389h-89.455V11.934h89.455V101.389z"
      />
		<path
        style="fill:#010002;"
        d="M232.064,23.867h-65.588v65.588h65.588V23.867z M220.13,77.522h-41.72v-41.72h41.72V77.522z"
      />
		<path
        style="fill:#010002;"
        d="M23.867,232.064h65.588V166.47H23.867V232.064z M35.801,178.403h41.72v41.726h-41.72V178.403z"
      />
		<path
        style="fill:#010002;"
        d="M0,255.931h113.323V142.602H0V255.931z M11.934,154.536h89.455v89.461H11.934V154.536z"
      />
		<path
        style="fill:#010002;"
        d="M166.476,232.064h65.588V166.47h-65.588V232.064z M178.409,178.403h41.72v41.726h-41.72V178.403z"
      />
		<path
        style="fill:#010002;"
        d="M142.608,255.931h113.323V142.602H142.608V255.931z M154.542,154.536h89.455v89.461h-89.455
			V154.536z"
      />
	</g>
</g>
<g>
</g>
<g>
</g>
<g>
</g>
<g>
</g>
<g>
</g>
<g>
</g>
<g>
</g>
<g>
</g>
<g>
</g>
<g>
</g>
<g>
</g>
<g>
</g>
<g>
</g>
<g>
</g>
<g>
</g>
</svg>
